<svg xmlns="http://www.w3.org/2000/svg" xmlns:xlink="http://www.w3.org/1999/xlink" width="500" zoomAndPan="magnify" viewBox="0 0 375 374.999991" height="500" preserveAspectRatio="xMidYMid meet" version="1.0"><defs><clipPath id="d0640a79c3"><path d="M 34.273438 26 L 341 26 L 341 354 L 34.273438 354 Z M 34.273438 26 " clip-rule="nonzero"/></clipPath></defs><g clip-path="url(#d0640a79c3)"><path fill="#004aad" d="M 200.597656 334.585938 C 201.015625 338.429688 201.265625 343.417969 202.167969 348.285156 C 203.257812 354.179688 206.664062 354.699219 210.625 350.753906 C 214.371094 347.019531 217.859375 343 221.175781 338.875 C 254.347656 297.589844 276.535156 250.0625 297.214844 201.945312 C 308.6875 175.246094 313.046875 179.351562 282.550781 166.785156 C 237.863281 148.375 191.027344 146.496094 143.65625 152.953125 C 118.449219 156.386719 94.335938 163.398438 72.046875 176.109375 C 66.601562 179.214844 64.421875 182.21875 67.050781 188.707031 C 75.476562 209.480469 82.574219 230.828125 91.671875 251.292969 C 99.488281 268.882812 109.1875 285.660156 118.460938 302.574219 C 119.925781 305.25 123.539062 306.75 126.15625 308.792969 C 128.066406 306.164062 130.550781 303.789062 131.789062 300.882812 C 139.234375 283.398438 146.035156 265.632812 153.835938 248.3125 C 156.710938 241.9375 160.886719 235.640625 165.925781 230.839844 C 181.121094 216.359375 197.164062 220.8125 201.894531 241.347656 C 204.585938 253.011719 205.128906 265.445312 204.78125 277.476562 C 204.25 296.152344 202.132812 314.777344 200.597656 334.585938 Z M 34.316406 190.964844 C 40.1875 182.808594 45.523438 174.175781 52.136719 166.667969 C 56.203125 162.054688 56.996094 158.011719 55.625 152.4375 C 49.25 126.496094 47.316406 100.117188 48.867188 73.503906 C 50.679688 42.402344 72.589844 27.292969 102.488281 36.582031 C 110.5 39.070312 118.4375 42.097656 125.960938 45.796875 C 142.609375 53.988281 160 57.496094 178.488281 56.503906 C 181.332031 56.351562 184.28125 58.234375 187.179688 59.171875 C 185.230469 61.691406 183.769531 65.601562 181.25 66.476562 C 170.144531 70.34375 158.792969 73.542969 147.414062 76.535156 C 142.933594 77.714844 138.046875 77.3125 133.539062 78.421875 C 130.738281 79.109375 128.304688 81.277344 125.703125 82.78125 C 128.210938 84.070312 130.761719 86.550781 133.210938 86.449219 C 146.226562 85.917969 159.292969 85.308594 172.203125 83.65625 C 192.703125 81.023438 209.816406 71.214844 224.648438 57.023438 C 231.851562 50.128906 239.289062 43.453125 246.898438 37.007812 C 266.609375 20.3125 294.488281 22.992188 311.054688 42.730469 C 326.640625 61.296875 328.128906 83.066406 325.03125 105.53125 C 323.039062 120 319.777344 134.339844 316.265625 148.53125 C 314.6875 154.890625 315.140625 159.003906 320 164.128906 C 327.726562 172.277344 333.882812 181.910156 340.707031 190.917969 C 270.402344 108.628906 99.855469 112 34.316406 190.964844 " fill-opacity="1" fill-rule="nonzero"/></g></svg>