<svg width="151" height="31" viewBox="0 0 151 31" fill="none" xmlns="http://www.w3.org/2000/svg">
<path d="M4.83 24C4.05 24 3.35 23.81 2.73 23.43C2.11 23.05 1.61 22.55 1.23 21.93C0.87 21.31 0.69 20.62 0.69 19.86V10.74C0.69 9.98 0.87 9.29 1.23 8.67C1.61 8.05 2.11 7.55 2.73 7.17C3.35 6.79 4.05 6.6 4.83 6.6H14.46V0.899999H18.39V24H4.83ZM5.01 20.07H14.1C14.2 20.07 14.28 20.04 14.34 19.98C14.42 19.9 14.46 19.81 14.46 19.71V10.89C14.46 10.79 14.42 10.71 14.34 10.65C14.28 10.57 14.2 10.53 14.1 10.53H5.01C4.91 10.53 4.82 10.57 4.74 10.65C4.68 10.71 4.65 10.79 4.65 10.89V19.71C4.65 19.81 4.68 19.9 4.74 19.98C4.82 20.04 4.91 20.07 5.01 20.07ZM25.0352 24C24.2752 24 23.5852 23.81 22.9652 23.43C22.3452 23.05 21.8452 22.55 21.4652 21.93C21.0852 21.31 20.8952 20.62 20.8952 19.86V10.74C20.8952 9.98 21.0852 9.29 21.4652 8.67C21.8452 8.05 22.3452 7.55 22.9652 7.17C23.5852 6.79 24.2752 6.6 25.0352 6.6H34.4252C35.1852 6.6 35.8752 6.79 36.4952 7.17C37.1352 7.55 37.6352 8.05 37.9952 8.67C38.3752 9.29 38.5652 9.98 38.5652 10.74V17.28H24.8252V19.71C24.8252 19.81 24.8552 19.9 24.9152 19.98C24.9952 20.04 25.0852 20.07 25.1852 20.07H38.5652V24H25.0352ZM24.8252 13.74H34.6352V10.89C34.6352 10.79 34.5952 10.71 34.5152 10.65C34.4552 10.57 34.3752 10.53 34.2752 10.53H25.1852C25.0852 10.53 24.9952 10.57 24.9152 10.65C24.8552 10.71 24.8252 10.79 24.8252 10.89V13.74ZM41.7567 24V6.6H55.2867C56.0467 6.6 56.7367 6.79 57.3567 7.17C57.9967 7.55 58.4967 8.05 58.8567 8.67C59.2367 9.29 59.4267 9.98 59.4267 10.74V24H55.4967V10.89C55.4967 10.79 55.4567 10.71 55.3767 10.65C55.3167 10.57 55.2367 10.53 55.1367 10.53H46.0467C45.9467 10.53 45.8567 10.57 45.7767 10.65C45.7167 10.71 45.6867 10.79 45.6867 10.89V24H41.7567ZM66.7554 24C65.9954 24 65.3054 23.81 64.6854 23.43C64.0654 23.05 63.5654 22.55 63.1854 21.93C62.8054 21.31 62.6154 20.62 62.6154 19.86V1.26H66.5454V6.6H73.3254V10.53H66.5454V19.71C66.5454 19.81 66.5754 19.9 66.6354 19.98C66.7154 20.04 66.8054 20.07 66.9054 20.07H73.3254V24H66.7554ZM75.769 24V6.6H79.699V24H75.769ZM75.769 4.86V0.899999H79.699V4.86H75.769ZM87.2597 24C86.4997 24 85.8097 23.81 85.1897 23.43C84.5697 23.05 84.0697 22.55 83.6897 21.93C83.3097 21.31 83.1197 20.62 83.1197 19.86V19.2H87.0497V19.71C87.0497 19.81 87.0797 19.9 87.1397 19.98C87.2197 20.04 87.3097 20.07 87.4097 20.07H96.4997C96.5997 20.07 96.6797 20.04 96.7397 19.98C96.8197 19.9 96.8597 19.81 96.8597 19.71V17.64C96.8597 17.54 96.8197 17.46 96.7397 17.4C96.6797 17.32 96.5997 17.28 96.4997 17.28H87.2597C86.4997 17.28 85.8097 17.09 85.1897 16.71C84.5697 16.33 84.0697 15.83 83.6897 15.21C83.3097 14.59 83.1197 13.9 83.1197 13.14V10.74C83.1197 9.98 83.3097 9.29 83.6897 8.67C84.0697 8.05 84.5697 7.55 85.1897 7.17C85.8097 6.79 86.4997 6.6 87.2597 6.6H96.6497C97.4297 6.6 98.1297 6.79 98.7497 7.17C99.3697 7.55 99.8697 8.05 100.25 8.67C100.63 9.29 100.82 9.98 100.82 10.74V11.4H96.8597V10.89C96.8597 10.79 96.8197 10.71 96.7397 10.65C96.6797 10.57 96.5997 10.53 96.4997 10.53H87.4097C87.3097 10.53 87.2197 10.57 87.1397 10.65C87.0797 10.71 87.0497 10.79 87.0497 10.89V12.96C87.0497 13.06 87.0797 13.15 87.1397 13.23C87.2197 13.29 87.3097 13.32 87.4097 13.32H96.6497C97.4297 13.32 98.1297 13.51 98.7497 13.89C99.3697 14.27 99.8697 14.77 100.25 15.39C100.63 16.01 100.82 16.7 100.82 17.46V19.86C100.82 20.62 100.63 21.31 100.25 21.93C99.8697 22.55 99.3697 23.05 98.7497 23.43C98.1297 23.81 97.4297 24 96.6497 24H87.2597ZM107.976 24C107.216 24 106.526 23.81 105.906 23.43C105.286 23.05 104.786 22.55 104.406 21.93C104.026 21.31 103.836 20.62 103.836 19.86V1.26H107.766V6.6H114.546V10.53H107.766V19.71C107.766 19.81 107.796 19.9 107.856 19.98C107.936 20.04 108.026 20.07 108.126 20.07H114.546V24H107.976ZM117.165 24V10.74C117.165 9.98 117.355 9.29 117.735 8.67C118.115 8.05 118.615 7.55 119.235 7.17C119.875 6.79 120.565 6.6 121.305 6.6H130.965V10.53H121.455C121.355 10.53 121.265 10.57 121.185 10.65C121.125 10.71 121.095 10.79 121.095 10.89V24H117.165ZM135.449 30.45V26.49H145.919C146.019 26.49 146.099 26.45 146.159 26.37C146.239 26.31 146.279 26.23 146.279 26.13V24H136.679C135.939 24 135.249 23.81 134.609 23.43C133.989 23.05 133.489 22.55 133.109 21.93C132.729 21.31 132.539 20.62 132.539 19.86V6.66H136.469V19.71C136.469 19.81 136.499 19.9 136.559 19.98C136.639 20.04 136.729 20.07 136.829 20.07H145.919C146.019 20.07 146.099 20.04 146.159 19.98C146.239 19.9 146.279 19.81 146.279 19.71V6.66H150.209V26.31C150.209 27.07 150.029 27.76 149.669 28.38C149.309 29.02 148.809 29.52 148.169 29.88C147.549 30.26 146.859 30.45 146.099 30.45H135.449Z" fill="url(#paint0_linear_156_4685)"/>
<defs>
<linearGradient id="paint0_linear_156_4685" x1="0" y1="12.5" x2="159" y2="12.5" gradientUnits="userSpaceOnUse">
<stop stop-color="#E0F0FF"/>
<stop offset="1" stop-color="#9DB1EA"/>
</linearGradient>
</defs>
</svg>
